<svg preserveAspectRatio="xMidYMid meet" data-bbox="20 34 160 131.999" viewBox="20 34 160 131.999" height="200" width="200" xmlns="http://www.w3.org/2000/svg" data-type="color" role="presentation" aria-hidden="true" aria-label=""><defs><style>#comp-lsur21zv svg [data-color="1"] {fill: #233722;}</style></defs>
    <g>
        <path d="M179.983 72.429c-.007-.396-.017-.792-.028-1.187C179.336 50.567 162.608 34 142.063 34c-20.937 0-37.909 17.206-37.909 38.429 0 21.224 16.972 38.429 37.909 38.429.188 0 .374-.012.562-.014 1.356 6.035 4.5 28.477-16.057 52.702l3.611 2.44c.404.273 4.891-3.708 5.249-4 4.46-3.644 8.67-7.605 12.627-11.802 12.038-12.768 21.834-27.951 27.19-44.81 3.335-10.497 4.938-21.895 4.738-32.945z" fill="#083a64" data-color="1"></path>
        <path d="M95.829 72.429c-.007-.396-.017-.792-.028-1.187C95.182 50.567 78.454 34 57.909 34 36.972 34 20 51.205 20 72.429c0 21.224 16.972 38.429 37.909 38.429.188 0 .374-.012.562-.014 1.356 6.035 4.5 28.477-16.057 52.702l3.611 2.44c.404.273 4.891-3.708 5.249-4 4.46-3.644 8.67-7.605 12.627-11.802 12.038-12.768 21.834-27.951 27.19-44.81 3.335-10.497 4.938-21.895 4.738-32.945z" fill="#083a64" data-color="1"></path>
    </g>
</svg>